<svg width="36" height="43" viewBox="0 0 36 43" fill="none" xmlns="http://www.w3.org/2000/svg">
<path d="M21.711 30.1217V38.0517H30.876V30.0915L26.355 26.1481L21.711 30.1217Z" fill="#C0DFF8"/>
<path d="M3.15987 36.64L6.1856 39.0558L9.21062 36.64C9.40763 36.4826 9.68786 36.4826 9.88487 36.64L12.9095 39.0558L15.9233 36.6488L16.1172 36.477C14.9864 33.2624 15.4468 29.7035 17.3582 26.8811C19.2697 24.0584 22.4067 22.306 25.8163 22.1556V3.86264C25.8163 2.61184 26.3578 1.42239 27.3021 0.599976H3.83202C1.71654 0.60243 0.00245823 2.31352 0 4.42529V38.6253L2.48597 36.64C2.68298 36.4826 2.96286 36.4826 3.15987 36.64ZM9.84484 6.47817H22.8657C23.1635 6.47817 23.4051 6.71936 23.4051 7.01663C23.4051 7.31391 23.1635 7.55509 22.8657 7.55509H9.84484C9.54669 7.55509 9.30544 7.31391 9.30544 7.01663C9.30544 6.71936 9.54669 6.47817 9.84484 6.47817ZM9.84484 11.5921H22.8657C23.1635 11.5921 23.4051 11.833 23.4051 12.1306C23.4051 12.4279 23.1635 12.6691 22.8657 12.6691H9.84484C9.54669 12.6691 9.30544 12.4279 9.30544 12.1306C9.30544 11.833 9.54669 11.5921 9.84484 11.5921ZM9.84484 16.7061H22.8657C23.1635 16.7061 23.4051 16.947 23.4051 17.2446C23.4051 17.5419 23.1635 17.783 22.8657 17.783H9.84484C9.54669 17.783 9.30544 17.5419 9.30544 17.2446C9.30544 16.947 9.54669 16.7061 9.84484 16.7061ZM9.84484 21.8197H17.7428C18.0406 21.8197 18.2822 22.0609 18.2822 22.3582C18.2822 22.6558 18.0406 22.8967 17.7428 22.8967H9.84484C9.54669 22.8967 9.30544 22.6558 9.30544 22.3582C9.30544 22.0609 9.54669 21.8197 9.84484 21.8197ZM9.39218 32.1206H13.9518C14.2496 32.1206 14.4912 32.3615 14.4912 32.6591C14.4912 32.9564 14.2496 33.1975 13.9518 33.1975H9.39218C9.09438 33.1975 8.85277 32.9564 8.85277 32.6591C8.85277 32.3615 9.09438 32.1206 9.39218 32.1206ZM5.59035 6.47817H7.40663C7.70478 6.47817 7.94604 6.71936 7.94604 7.01663C7.94604 7.31391 7.70478 7.55509 7.40663 7.55509H5.59035C5.29256 7.55509 5.05095 7.31391 5.05095 7.01663C5.05095 6.71936 5.29256 6.47817 5.59035 6.47817ZM5.59035 11.5921H7.40663C7.70478 11.5921 7.94604 11.833 7.94604 12.1306C7.94604 12.4279 7.70478 12.6691 7.40663 12.6691H5.59035C5.29256 12.6691 5.05095 12.4279 5.05095 12.1306C5.05095 11.833 5.29256 11.5921 5.59035 11.5921ZM5.59035 16.7061H7.40663C7.70478 16.7061 7.94604 16.947 7.94604 17.2446C7.94604 17.5419 7.70478 17.783 7.40663 17.783H5.59035C5.29256 17.783 5.05095 17.5419 5.05095 17.2446C5.05095 16.947 5.29256 16.7061 5.59035 16.7061ZM5.59035 21.8197H7.40663C7.70478 21.8197 7.94604 22.0609 7.94604 22.3582C7.94604 22.6558 7.70478 22.8967 7.40663 22.8967H5.59035C5.29256 22.8967 5.05095 22.6558 5.05095 22.3582C5.05095 22.0609 5.29256 21.8197 5.59035 21.8197ZM2.95057 6.47817H3.19078C3.48892 6.47817 3.73018 6.71936 3.73018 7.01663C3.73018 7.31391 3.48892 7.55509 3.19078 7.55509H2.95057C2.65278 7.55509 2.41117 7.31391 2.41117 7.01663C2.41117 6.71936 2.65278 6.47817 2.95057 6.47817ZM2.95057 11.5921H3.19078C3.48892 11.5921 3.73018 11.833 3.73018 12.1306C3.73018 12.4279 3.48892 12.6691 3.19078 12.6691H2.95057C2.65278 12.6691 2.41117 12.4279 2.41117 12.1306C2.41117 11.833 2.65278 11.5921 2.95057 11.5921ZM2.95057 16.7061H3.19078C3.48892 16.7061 3.73018 16.947 3.73018 17.2446C3.73018 17.5419 3.48892 17.783 3.19078 17.783H2.95057C2.65278 17.783 2.41117 17.5419 2.41117 17.2446C2.41117 16.947 2.65278 16.7061 2.95057 16.7061ZM2.95057 21.8197H3.19078C3.48892 21.8197 3.73018 22.0609 3.73018 22.3582C3.73018 22.6558 3.48892 22.8967 3.19078 22.8967H2.95057C2.65278 22.8967 2.41117 22.6558 2.41117 22.3582C2.41117 22.0609 2.65278 21.8197 2.95057 21.8197ZM4.47818 31.5194C3.44151 31.5198 2.56533 30.7534 2.42908 29.728C2.29247 28.7027 2.93828 27.7348 3.93878 27.4648V27.0936C3.93878 26.7963 4.18004 26.5551 4.47818 26.5551C4.77598 26.5551 5.01759 26.7963 5.01759 27.0936V27.4648C5.918 27.7092 6.54344 28.5246 6.54485 29.4564C6.54485 29.7536 6.30324 29.9948 6.00544 29.9948C5.70765 29.9948 5.46604 29.7536 5.46604 29.4564C5.46604 28.9116 5.02356 28.4699 4.47783 28.4699C3.93211 28.4699 3.48998 28.9116 3.48998 29.4564C3.48998 30.0011 3.93246 30.4428 4.47818 30.4425C5.5145 30.4428 6.39033 31.2088 6.52694 32.2342C6.66319 33.2596 6.01773 34.2275 5.01759 34.4974V34.9381C5.01759 35.2353 4.77598 35.4765 4.47818 35.4765C4.18004 35.4765 3.93878 35.2353 3.93878 34.9381V34.4974C3.03801 34.2534 2.41222 33.4377 2.41117 32.5059C2.41117 32.2083 2.65278 31.9674 2.95057 31.9674C3.24837 31.9674 3.48998 32.2083 3.48998 32.5059C3.49068 33.0457 3.92614 33.4853 4.4673 33.4917C4.47081 33.4917 4.47432 33.491 4.47818 33.491C4.4817 33.491 4.48521 33.491 4.48907 33.4917C5.03444 33.4885 5.47447 33.0447 5.47131 32.4999C5.46815 31.9555 5.02356 31.5163 4.47818 31.5194Z" fill="#FAFAFA"/>
<path d="M26.2935 23.2214C20.9328 23.2214 16.5874 27.5596 16.5874 32.9106C16.5874 38.2619 20.9328 42.6001 26.2935 42.6001C31.6542 42.6001 36 38.2619 36 32.9106C35.9937 27.5621 31.6518 23.2274 26.2935 23.2214ZM33.4424 31.6156C33.2464 31.8393 32.9054 31.8624 32.681 31.6668L31.9548 31.033V38.5904C31.9548 38.8876 31.7132 39.1288 31.4154 39.1288H21.1716C20.8738 39.1288 20.6322 38.8876 20.6322 38.5904V31.0449L19.9021 31.6696C19.7561 31.7979 19.5524 31.8379 19.3687 31.7741C19.185 31.7106 19.0498 31.5532 19.0151 31.3622C18.98 31.1714 19.0509 30.9765 19.2001 30.8521L20.7836 29.4968C20.8075 29.4723 20.8335 29.4502 20.8616 29.4302L26.0073 25.0275C26.2106 24.8533 26.5116 24.8547 26.7132 25.0307L33.3911 30.8552C33.4989 30.9492 33.565 31.0821 33.5744 31.2247C33.5843 31.3674 33.5365 31.508 33.4424 31.6156Z" fill="#C0DFF8"/>
<path d="M30.1635 0.599976C28.3591 0.602079 26.8972 2.06146 26.8951 3.86264V13.3397H33.4319V3.86264C33.4297 2.06181 31.9678 0.602079 30.1635 0.599976Z" fill="#FAFAFA"/>
</svg>
