<svg width="40" height="40" viewBox="0 0 40 40" fill="none" xmlns="http://www.w3.org/2000/svg">
<path d="M28.9552 30.144L27.8677 29.0565C27.7065 29.2463 27.543 29.4353 27.3637 29.6138C27.1845 29.7923 26.997 29.9565 26.8065 30.1178L27.894 31.2053L28.9552 30.144Z" fill="#C0DFF8"/>
<path d="M6.75003 36.7499C6.71419 36.7586 6.67742 36.7629 6.64053 36.7626C6.47981 36.7728 6.32033 36.7288 6.18752 36.6377C6.05471 36.5466 5.95623 36.4137 5.90778 36.2601C5.79321 35.9248 5.56317 35.6411 5.25875 35.4597C4.95432 35.2783 4.59533 35.211 4.24588 35.2699C3.89643 35.3288 3.57928 35.5099 3.35107 35.781C3.12285 36.0521 2.99843 36.3955 3.00003 36.7499C3.00212 36.9778 3.05679 37.2021 3.15978 37.4054C3.22913 37.5459 3.25274 37.7045 3.22731 37.8591C3.20188 38.0137 3.12868 38.1564 3.01798 38.2673C2.90729 38.3782 2.76466 38.4516 2.61011 38.4772C2.45557 38.5029 2.29686 38.4795 2.15628 38.4104C1.81647 38.2425 1.42558 38.2101 1.06272 38.3195C0.699863 38.4289 0.392126 38.6721 0.201782 38.9999H9.65178C9.48471 38.3569 9.10936 37.7874 8.58437 37.3803C8.05939 36.9733 7.41435 36.7516 6.75003 36.7499Z" fill="white"/>
<path d="M26.8335 33.3262C26.6929 33.1856 26.6139 32.9949 26.6139 32.796C26.6139 32.5971 26.6929 32.4064 26.8335 32.2657L25.5637 30.9952C23.6768 32.1078 21.4488 32.4941 19.2974 32.0815C17.1461 31.6689 15.219 30.4858 13.8775 28.754C12.5361 27.0223 11.8722 24.8607 12.0105 22.6745C12.1488 20.4883 13.0796 18.4276 14.6286 16.8786C16.1776 15.3296 18.2383 14.3988 20.4245 14.2605C22.6107 14.1222 24.7723 14.786 26.5041 16.1275C28.2358 17.469 29.4189 19.396 29.8315 21.5474C30.2441 23.6988 29.8579 25.9268 28.7453 27.8137L30.0158 29.0835C30.1564 28.9429 30.3471 28.8639 30.546 28.8639C30.7449 28.8639 30.9356 28.9429 31.0763 29.0835L33.75 31.7572V17.5605L21.5303 5.34073C21.3877 5.20387 21.1977 5.12744 21 5.12744C20.8023 5.12744 20.6123 5.20387 20.4697 5.34073L8.25 17.5605V35.511C9.00476 35.7796 9.67434 36.2444 10.1899 36.8576C10.7054 37.4708 11.0483 38.2103 11.1832 39H32.508L26.8335 33.3262Z" fill="white"/>
<path d="M20.4698 0.840735L3.15526 18.1552C3.07702 18.2333 3.01495 18.326 2.9726 18.428C2.93025 18.5301 2.90845 18.6395 2.90845 18.75C2.90845 18.8605 2.93025 18.9699 2.9726 19.072C3.01495 19.174 3.07702 19.2667 3.15526 19.3447C3.31334 19.5018 3.52715 19.59 3.75001 19.59C3.97287 19.59 4.18668 19.5018 4.34476 19.3447L19.4093 4.28023C19.6182 4.07126 19.8663 3.9055 20.1393 3.7924C20.4123 3.6793 20.7049 3.62109 21.0004 3.62109C21.2959 3.62109 21.5885 3.6793 21.8615 3.7924C22.1345 3.9055 22.3826 4.07126 22.5915 4.28023L37.6553 19.3447C37.813 19.5025 38.0269 19.5911 38.25 19.5911C38.4731 19.5911 38.687 19.5025 38.8448 19.3447C39.0025 19.187 39.0911 18.9731 39.0911 18.75C39.0911 18.5269 39.0025 18.313 38.8448 18.1552L21.5303 0.840735C21.3877 0.703868 21.1977 0.627441 21 0.627441C20.8024 0.627441 20.6124 0.703868 20.4698 0.840735Z" fill="white"/>
<path d="M33.75 10.9395V3H29.25V6.4395L33.75 10.9395Z" fill="white"/>
<path d="M30.5374 34.9231L32.659 32.8016L36.901 37.0436L34.7794 39.1651L30.5374 34.9231Z" fill="#C0DFF8"/>
<path d="M28.4173 32.8005L30.5386 30.6792L31.5992 31.7399L29.4779 33.8612L28.4173 32.8005Z" fill="#C0DFF8"/>
<path d="M27.75 0H35.2508V1.5H27.75V0Z" fill="white"/>
<path d="M26.3033 17.9468C25.2544 16.8978 23.918 16.1835 22.4632 15.8941C21.0083 15.6047 19.5003 15.7532 18.1299 16.3209C16.7594 16.8885 15.588 17.8498 14.7639 19.0832C13.9398 20.3166 13.4999 21.7666 13.4999 23.25C13.4999 24.7334 13.9398 26.1834 14.7639 27.4168C15.588 28.6502 16.7594 29.6115 18.1299 30.1791C19.5003 30.7468 21.0083 30.8953 22.4632 30.6059C23.918 30.3165 25.2544 29.6022 26.3033 28.5533C27.0029 27.8586 27.5581 27.0324 27.937 26.1222C28.3158 25.212 28.5109 24.2359 28.5109 23.25C28.5109 22.2641 28.3158 21.288 27.937 20.3778C27.5581 19.4676 27.0029 18.6414 26.3033 17.9468ZM25.2428 27.4928C24.4037 28.3318 23.3346 28.9033 22.1707 29.1347C21.0068 29.3662 19.8004 29.2474 18.7041 28.7933C17.6078 28.3391 16.6707 27.5701 16.0114 26.5834C15.3521 25.5967 15.0003 24.4367 15.0003 23.25C15.0003 22.0633 15.3521 20.9033 16.0114 19.9166C16.6707 18.9299 17.6078 18.1609 18.7041 17.7068C19.8004 17.2526 21.0068 17.1338 22.1707 17.3653C23.3346 17.5968 24.4037 18.1682 25.2428 19.0073C25.8023 19.5631 26.2464 20.2241 26.5494 20.9523C26.8524 21.6804 27.0084 22.4613 27.0084 23.25C27.0084 24.0387 26.8524 24.8196 26.5494 25.5477C26.2464 26.2759 25.8023 26.9369 25.2428 27.4928Z" fill="#C0DFF8"/>
<path d="M24.1823 20.0678C23.5529 19.4385 22.7511 19.01 21.8782 18.8364C21.0053 18.6628 20.1005 18.752 19.2783 19.0926C18.4561 19.4332 17.7533 20.01 17.2589 20.75C16.7645 21.49 16.5005 22.36 16.5005 23.25C16.5005 24.14 16.7645 25.01 17.2589 25.75C17.7533 26.49 18.4561 27.0668 19.2783 27.4074C20.1005 27.748 21.0053 27.8372 21.8782 27.6636C22.7511 27.49 23.5529 27.0615 24.1823 26.4323C24.6019 26.0153 24.935 25.5195 25.1622 24.9734C25.3895 24.4272 25.5065 23.8415 25.5065 23.25C25.5065 22.6585 25.3895 22.0728 25.1622 21.5266C24.935 20.9805 24.6019 20.4847 24.1823 20.0678Z" fill="#C0DFF8"/>
</svg>
