<svg width="43" height="43" viewBox="0 0 43 43" fill="none" xmlns="http://www.w3.org/2000/svg">
<path d="M17.6898 25.35H20.6967V26.1H17.6898V25.35Z" fill="white"/>
<path d="M10.9242 33.6H13.9311V36.6H10.9242V33.6Z" fill="white"/>
<path d="M22.2002 27.6H25.2071V28.35H22.2002V27.6Z" fill="white"/>
<path d="M17.6898 27.6H20.6967V28.35H17.6898V27.6Z" fill="white"/>
<path d="M34.2279 14.5394V6.59998H29.7175V10.0394L34.2279 14.5394Z" fill="white"/>
<path d="M19.8 7.93399L19.8569 7.87723C20.7371 7.00272 22.1598 7.00272 23.04 7.87723L38.1422 22.9446C38.4721 23.2716 39.0044 23.2716 39.3344 22.9446C39.6629 22.6158 39.6629 22.084 39.3344 21.7552L21.9748 4.43777C21.6819 4.14883 21.2106 4.14883 20.9177 4.43777L19.3081 6.04324C19.531 6.65701 19.6954 7.28983 19.8 7.93399Z" fill="white"/>
<path d="M9.42076 18.6C14.4028 18.6 18.4415 14.5706 18.4415 9.59998C18.4415 4.62939 14.4028 0.599976 9.42076 0.599976C4.43872 0.599976 0.4 4.62939 0.4 9.59998C0.405505 14.5684 4.44092 18.5945 9.42076 18.6ZM6.41384 11.85H7.9173V12.6C7.9173 13.0142 8.25389 13.35 8.66903 13.35H10.1725C10.5876 13.35 10.9242 13.0142 10.9242 12.6V11.1C10.9242 10.6858 10.5876 10.35 10.1725 10.35H8.66903C7.42361 10.35 6.41384 9.34253 6.41384 8.09998V6.59998C6.41384 5.35742 7.42361 4.34998 8.66903 4.34998V2.84998H10.1725V4.34998C11.4179 4.34998 12.4277 5.35742 12.4277 6.59998V7.34998H10.9242V6.59998C10.9242 6.18579 10.5876 5.84998 10.1725 5.84998H8.66903C8.25389 5.84998 7.9173 6.18579 7.9173 6.59998V8.09998C7.9173 8.51416 8.25389 8.84998 8.66903 8.84998H10.1725C11.4179 8.84998 12.4277 9.85742 12.4277 11.1V12.6C12.4277 13.8425 11.4179 14.85 10.1725 14.85V16.35H8.66903V14.85C7.42361 14.85 6.41384 13.8425 6.41384 12.6V11.85Z" fill="#C0DFF8"/>
<path d="M22.2002 25.35H25.2071V26.1H22.2002V25.35Z" fill="white"/>
<path d="M28.214 3.59998H35.7313V5.09998H28.214V3.59998Z" fill="white"/>
<path d="M25.2071 42.6V32.1H17.6898V42.6H25.2071ZM18.4415 37.35H19.1933V35.85H18.4415V34.35H19.945C20.3601 34.35 20.6967 34.6858 20.6967 35.1V38.1C20.6967 38.5142 20.3601 38.85 19.945 38.85H18.4415V37.35Z" fill="white"/>
<path d="M3.56255 21.7553C3.23477 22.0845 3.23477 22.6155 3.56255 22.9447C3.89217 23.2725 4.42513 23.2725 4.75475 22.9447L7.75029 19.9561C7.10501 19.8524 6.47037 19.6891 5.85518 19.4679L3.56255 21.7553Z" fill="white"/>
<path d="M9.74854 20.0836L9.73203 20.1001H33.1649L21.9748 8.93802C21.6819 8.64908 21.2106 8.64908 20.9177 8.93802L19.9263 9.92715C19.7475 15.4599 15.294 19.9042 9.74854 20.0836Z" fill="white"/>
<path d="M39.49 40.35C39.0748 40.35 38.7383 40.0142 38.7383 39.6C38.7383 38.3574 37.7285 37.35 36.4831 37.35C35.2376 37.35 34.2279 38.3574 34.2279 39.6C34.2312 39.7926 34.2598 39.9841 34.3127 40.1691C34.374 40.3994 34.3218 40.6444 34.1728 40.8301C34.0234 41.0157 33.7947 41.1198 33.5565 41.1106C33.5312 41.1106 33.4552 41.1014 33.4295 41.0985C32.4891 41.1128 31.6581 41.7119 31.3494 42.5985H42.4C42.0553 41.2761 40.8595 40.3522 39.49 40.35Z" fill="white"/>
<path d="M7.1651 40.3499C7.13133 40.3591 7.09646 40.3631 7.06122 40.3627C6.72867 40.3832 6.42438 40.1763 6.3216 39.8603C6.08375 39.1685 5.37864 38.7499 4.6559 38.8715C3.9328 38.9931 3.40424 39.6186 3.40645 40.3499C3.40865 40.5781 3.46371 40.8026 3.56722 41.0062C3.70927 41.2944 3.65164 41.6408 3.42406 41.8679C3.19612 42.0949 2.84852 42.1517 2.56001 42.0096C1.85417 41.6643 1.00076 41.9221 0.605442 42.5999H10.0773C9.73302 41.2761 8.53605 40.351 7.1651 40.3499Z" fill="white"/>
<path d="M33.4703 37.3807C33.685 37.0922 33.9401 36.8358 34.2279 36.6194V21.6H8.66903V39.1111C10.2092 39.6578 11.3335 40.9919 11.6091 42.6H16.1863V31.35C16.1863 30.9358 16.5229 30.6 16.9381 30.6H25.9588C26.374 30.6 26.7106 30.9358 26.7106 31.35V42.6H29.8001C30.1014 41.1296 31.2514 39.9794 32.7244 39.675C32.7244 39.6501 32.7244 39.6249 32.7244 39.6C32.7273 39.0375 32.8587 38.4834 33.1087 37.9791C32.9946 38.0546 32.8613 38.0963 32.7244 38.1H28.214C27.7989 38.1 27.4623 37.7642 27.4623 37.35V32.85C27.4623 32.4358 27.7989 32.1 28.214 32.1H32.7244C33.1395 32.1 33.4761 32.4358 33.4761 32.85V37.35C33.4761 37.3613 33.4703 37.3701 33.4703 37.3807ZM15.4346 37.35C15.4346 37.7642 15.098 38.1 14.6829 38.1H10.1725C9.75735 38.1 9.42076 37.7642 9.42076 37.35V32.85C9.42076 32.4358 9.75735 32.1 10.1725 32.1H14.6829C15.098 32.1 15.4346 32.4358 15.4346 32.85V37.35ZM26.7106 28.35C26.7106 29.1783 26.0374 29.85 25.2071 29.85H17.6898C16.8595 29.85 16.1863 29.1783 16.1863 28.35V25.35C16.1863 24.5216 16.8595 23.85 17.6898 23.85H25.2071C26.0374 23.85 26.7106 24.5216 26.7106 25.35V28.35Z" fill="white"/>
<path d="M28.9658 33.6H31.9727V36.6H28.9658V33.6Z" fill="white"/>
</svg>
